{
    "asset" : {
        "generator" : "Khronos glTF Blender I/O v1.8.19",
        "version" : "2.0"
    },
    "scene" : 0,
    "scenes" : [
        {
            "name" : "Scene",
            "nodes" : [
                0
            ]
        }
    ],
    "nodes" : [
        {
            "mesh" : 0,
            "name" : "warrior",
            "scale" : [
                0.45952650904655457,
                1.6994956731796265,
                0.4577305018901825
            ],
            "translation" : [
                0,
                2.107670307159424,
                0
            ]
        }
    ],
    "materials" : [
        {
            "doubleSided" : true,
            "name" : "Material.001",
            "pbrMetallicRoughness" : {
                "baseColorTexture" : {
                    "index" : 0
                },
                "metallicFactor" : 0,
                "roughnessFactor" : 0.5
            }
        }
    ],
    "meshes" : [
        {
            "name" : "Cylinder",
            "primitives" : [
                {
                    "attributes" : {
                        "POSITION" : 0,
                        "NORMAL" : 1,
                        "TEXCOORD_0" : 2
                    },
                    "indices" : 3,
                    "material" : 0
                }
            ]
        }
    ],
    "textures" : [
        {
            "sampler" : 0,
            "source" : 0
        }
    ],
    "images" : [
        {
            "bufferView" : 4,
            "mimeType" : "image/png",
            "name" : "dirtblock"
        }
    ],
    "accessors" : [
        {
            "bufferView" : 0,
            "componentType" : 5126,
            "count" : 4416,
            "max" : [
                2.00869083404541,
                1.1092418432235718,
                3.7323477268218994
            ],
            "min" : [
                -2.0086896419525146,
                -1.6878689527511597,
                -3.6527318954467773
            ],
            "type" : "VEC3"
        },
        {
            "bufferView" : 1,
            "componentType" : 5126,
            "count" : 4416,
            "type" : "VEC3"
        },
        {
            "bufferView" : 2,
            "componentType" : 5126,
            "count" : 4416,
            "type" : "VEC2"
        },
        {
            "bufferView" : 3,
            "componentType" : 5123,
            "count" : 6516,
            "type" : "SCALAR"
        }
    ],
    "bufferViews" : [
        {
            "buffer" : 0,
            "byteLength" : 52992,
            "byteOffset" : 0
        },
        {
            "buffer" : 0,
            "byteLength" : 52992,
            "byteOffset" : 52992
        },
        {
            "buffer" : 0,
            "byteLength" : 35328,
            "byteOffset" : 105984
        },
        {
            "buffer" : 0,
            "byteLength" : 13032,
            "byteOffset" : 141312
        },
        {
            "buffer" : 0,
            "byteLength" : 96580,
            "byteOffset" : 154344
        }
    ],
    "samplers" : [
        {
            "magFilter" : 9729,
            "minFilter" : 9987
        }
    ],
    "buffers" : [
        {
            "byteLength" : 250924,
            "uri" : "data:application/octet-stream;base64,"
        }
    ]
}
