{
    "asset" : {
        "generator" : "Khronos glTF Blender I/O v1.8.19",
        "version" : "2.0"
    },
    "scene" : 0,
    "scenes" : [
        {
            "name" : "Scene",
            "nodes" : [
                0
            ]
        }
    ],
    "nodes" : [
        {
            "mesh" : 0,
            "name" : "Cube",
            "scale" : [
                5.8109049797058105,
                0.11141929775476456,
                6.11872673034668
            ]
        }
    ],
    "materials" : [
        {
            "doubleSided" : true,
            "name" : "Material.001",
            "pbrMetallicRoughness" : {
                "baseColorTexture" : {
                    "index" : 0
                },
                "metallicFactor" : 0,
                "roughnessFactor" : 0.5
            }
        },
        {
            "doubleSided" : true,
            "name" : "Material.002",
            "pbrMetallicRoughness" : {
                "baseColorTexture" : {
                    "index" : 1
                },
                "metallicFactor" : 0,
                "roughnessFactor" : 0.5
            }
        },
        {
            "doubleSided" : true,
            "name" : "Material.003",
            "pbrMetallicRoughness" : {
                "baseColorTexture" : {
                    "index" : 2
                },
                "metallicFactor" : 0,
                "roughnessFactor" : 0.5
            }
        },
        {
            "doubleSided" : true,
            "name" : "Material.004",
            "pbrMetallicRoughness" : {
                "baseColorTexture" : {
                    "index" : 3
                },
                "metallicFactor" : 0,
                "roughnessFactor" : 0.5
            }
        }
    ],
    "meshes" : [
        {
            "name" : "Cube.001",
            "primitives" : [
                {
                    "attributes" : {
                        "POSITION" : 0,
                        "NORMAL" : 1,
                        "TEXCOORD_0" : 2
                    },
                    "indices" : 3,
                    "material" : 0
                },
                {
                    "attributes" : {
                        "POSITION" : 4,
                        "NORMAL" : 5,
                        "TEXCOORD_0" : 6
                    },
                    "indices" : 7,
                    "material" : 1
                },
                {
                    "attributes" : {
                        "POSITION" : 8,
                        "NORMAL" : 9,
                        "TEXCOORD_0" : 10
                    },
                    "indices" : 11,
                    "material" : 2
                },
                {
                    "attributes" : {
                        "POSITION" : 12,
                        "NORMAL" : 13,
                        "TEXCOORD_0" : 14
                    },
                    "indices" : 15,
                    "material" : 3
                }
            ]
        }
    ],
    "textures" : [
        {
            "sampler" : 0,
            "source" : 0
        },
        {
            "sampler" : 0,
            "source" : 1
        },
        {
            "sampler" : 0,
            "source" : 2
        },
        {
            "sampler" : 0,
            "source" : 3
        }
    ],
    "images" : [
        {
            "bufferView" : 4,
            "mimeType" : "image/png",
            "name" : "texture_01"
        },
        {
            "bufferView" : 9,
            "mimeType" : "image/png",
            "name" : "smiley"
        },
        {
            "bufferView" : 14,
            "mimeType" : "image/png",
            "name" : "texture_13"
        },
        {
            "bufferView" : 19,
            "mimeType" : "image/png",
            "name" : "shark"
        }
    ],
    "accessors" : [
        {
            "bufferView" : 0,
            "componentType" : 5126,
            "count" : 72,
            "max" : [
                1,
                28.483253479003906,
                1
            ],
            "min" : [
                -1,
                -1,
                -1
            ],
            "type" : "VEC3"
        },
        {
            "bufferView" : 1,
            "componentType" : 5126,
            "count" : 72,
            "type" : "VEC3"
        },
        {
            "bufferView" : 2,
            "componentType" : 5126,
            "count" : 72,
            "type" : "VEC2"
        },
        {
            "bufferView" : 3,
            "componentType" : 5123,
            "count" : 108,
            "type" : "SCALAR"
        },
        {
            "bufferView" : 5,
            "componentType" : 5126,
            "count" : 8,
            "max" : [
                0.869746744632721,
                15.927127838134766,
                0.6541681289672852
            ],
            "min" : [
                0.3558310866355896,
                0.44134521484375,
                0.3623753786087036
            ],
            "type" : "VEC3"
        },
        {
            "bufferView" : 6,
            "componentType" : 5126,
            "count" : 8,
            "type" : "VEC3"
        },
        {
            "bufferView" : 7,
            "componentType" : 5126,
            "count" : 8,
            "type" : "VEC2"
        },
        {
            "bufferView" : 8,
            "componentType" : 5123,
            "count" : 12,
            "type" : "SCALAR"
        },
        {
            "bufferView" : 10,
            "componentType" : 5126,
            "count" : 12,
            "max" : [
                0.869746744632721,
                15.927127838134766,
                0.6541681289672852
            ],
            "min" : [
                0.3558310866355896,
                0.44134521484375,
                0.3623753786087036
            ],
            "type" : "VEC3"
        },
        {
            "bufferView" : 11,
            "componentType" : 5126,
            "count" : 12,
            "type" : "VEC3"
        },
        {
            "bufferView" : 12,
            "componentType" : 5126,
            "count" : 12,
            "type" : "VEC2"
        },
        {
            "bufferView" : 13,
            "componentType" : 5123,
            "count" : 18,
            "type" : "SCALAR"
        },
        {
            "bufferView" : 15,
            "componentType" : 5126,
            "count" : 4,
            "max" : [
                -0.2760799527168274,
                28.483253479003906,
                -0.4552721679210663
            ],
            "min" : [
                -0.2760799527168274,
                0.33438587188720703,
                -0.8509964942932129
            ],
            "type" : "VEC3"
        },
        {
            "bufferView" : 16,
            "componentType" : 5126,
            "count" : 4,
            "type" : "VEC3"
        },
        {
            "bufferView" : 17,
            "componentType" : 5126,
            "count" : 4,
            "type" : "VEC2"
        },
        {
            "bufferView" : 18,
            "componentType" : 5123,
            "count" : 6,
            "type" : "SCALAR"
        }
    ],
    "bufferViews" : [
        {
            "buffer" : 0,
            "byteLength" : 864,
            "byteOffset" : 0
        },
        {
            "buffer" : 0,
            "byteLength" : 864,
            "byteOffset" : 864
        },
        {
            "buffer" : 0,
            "byteLength" : 576,
            "byteOffset" : 1728
        },
        {
            "buffer" : 0,
            "byteLength" : 216,
            "byteOffset" : 2304
        },
        {
            "buffer" : 0,
            "byteLength" : 17469,
            "byteOffset" : 2520
        },
        {
            "buffer" : 0,
            "byteLength" : 96,
            "byteOffset" : 19992
        },
        {
            "buffer" : 0,
            "byteLength" : 96,
            "byteOffset" : 20088
        },
        {
            "buffer" : 0,
            "byteLength" : 64,
            "byteOffset" : 20184
        },
        {
            "buffer" : 0,
            "byteLength" : 24,
            "byteOffset" : 20248
        },
        {
            "buffer" : 0,
            "byteLength" : 17243,
            "byteOffset" : 20272
        },
        {
            "buffer" : 0,
            "byteLength" : 144,
            "byteOffset" : 37516
        },
        {
            "buffer" : 0,
            "byteLength" : 144,
            "byteOffset" : 37660
        },
        {
            "buffer" : 0,
            "byteLength" : 96,
            "byteOffset" : 37804
        },
        {
            "buffer" : 0,
            "byteLength" : 36,
            "byteOffset" : 37900
        },
        {
            "buffer" : 0,
            "byteLength" : 9581,
            "byteOffset" : 37936
        },
        {
            "buffer" : 0,
            "byteLength" : 48,
            "byteOffset" : 47520
        },
        {
            "buffer" : 0,
            "byteLength" : 48,
            "byteOffset" : 47568
        },
        {
            "buffer" : 0,
            "byteLength" : 32,
            "byteOffset" : 47616
        },
        {
            "buffer" : 0,
            "byteLength" : 12,
            "byteOffset" : 47648
        },
        {
            "buffer" : 0,
            "byteLength" : 17816,
            "byteOffset" : 47660
        }
    ],
    "samplers" : [
        {
            "magFilter" : 9729,
            "minFilter" : 9987
        }
    ],
    "buffers" : [
        {
            "byteLength" : 65476,
            "uri" : "data:application/octet-stream;base64,"
        }
    ]
}
