{
    "asset" : {
        "generator" : "Khronos glTF Blender I/O v1.8.19",
        "version" : "2.0"
    },
    "scene" : 0,
    "scenes" : [
        {
            "name" : "Scene",
            "nodes" : [
                0
            ]
        }
    ],
    "nodes" : [
        {
            "mesh" : 0,
            "name" : "Cube",
            "scale" : [
                5.8109049797058105,
                0.11141929775476456,
                6.11872673034668
            ]
        }
    ],
    "materials" : [
        {
            "doubleSided" : true,
            "name" : "Material_001",
            "pbrMetallicRoughness" : {
                "baseColorFactor" : [
                    0.9999998807907104,
                    0.9999998807907104,
                    0.9999998807907104,
                    1
                ],
                "baseColorTexture" : {
                    "index" : 0
                },
                "metallicFactor" : 0,
                "roughnessFactor" : 0.5
            }
        },
        {
            "doubleSided" : true,
            "name" : "Material_002",
            "pbrMetallicRoughness" : {
                "baseColorFactor" : [
                    0.9999998807907104,
                    0.9999998807907104,
                    0.9999998807907104,
                    1
                ],
                "baseColorTexture" : {
                    "index" : 1
                },
                "metallicFactor" : 0,
                "roughnessFactor" : 0.5
            }
        },
        {
            "doubleSided" : true,
            "name" : "Material_003",
            "pbrMetallicRoughness" : {
                "baseColorFactor" : [
                    0.9999998807907104,
                    0.9999998807907104,
                    0.9999998807907104,
                    1
                ],
                "baseColorTexture" : {
                    "index" : 2
                },
                "metallicFactor" : 0,
                "roughnessFactor" : 0.5
            }
        },
        {
            "doubleSided" : true,
            "name" : "Material_004",
            "pbrMetallicRoughness" : {
                "baseColorFactor" : [
                    0.9999998807907104,
                    0.9999998807907104,
                    0.9999998807907104,
                    1
                ],
                "baseColorTexture" : {
                    "index" : 3
                },
                "metallicFactor" : 0,
                "roughnessFactor" : 0.5
            }
        }
    ],
    "meshes" : [
        {
            "name" : "Mesh_0",
            "primitives" : [
                {
                    "attributes" : {
                        "POSITION" : 0,
                        "NORMAL" : 1,
                        "TEXCOORD_0" : 2
                    },
                    "indices" : 3,
                    "material" : 0
                },
                {
                    "attributes" : {
                        "POSITION" : 4,
                        "NORMAL" : 5,
                        "TEXCOORD_0" : 6
                    },
                    "indices" : 7,
                    "material" : 1
                },
                {
                    "attributes" : {
                        "POSITION" : 8,
                        "NORMAL" : 9,
                        "TEXCOORD_0" : 10
                    },
                    "indices" : 11,
                    "material" : 2
                },
                {
                    "attributes" : {
                        "POSITION" : 12,
                        "NORMAL" : 13,
                        "TEXCOORD_0" : 14
                    },
                    "indices" : 15,
                    "material" : 3
                }
            ]
        }
    ],
    "textures" : [
        {
            "sampler" : 0,
            "source" : 0
        },
        {
            "sampler" : 0,
            "source" : 1
        },
        {
            "sampler" : 0,
            "source" : 2
        },
        {
            "sampler" : 0,
            "source" : 3
        }
    ],
    "images" : [
        {
            "bufferView" : 4,
            "mimeType" : "image/png",
            "name" : "Material_001_albedo"
        },
        {
            "bufferView" : 9,
            "mimeType" : "image/png",
            "name" : "Material_002_albedo"
        },
        {
            "bufferView" : 14,
            "mimeType" : "image/png",
            "name" : "Material_003_albedo"
        },
        {
            "bufferView" : 19,
            "mimeType" : "image/png",
            "name" : "Material_004_albedo"
        }
    ],
    "accessors" : [
        {
            "bufferView" : 0,
            "componentType" : 5126,
            "count" : 76,
            "max" : [
                1,
                28.483253479003906,
                1
            ],
            "min" : [
                -1,
                -1,
                -1
            ],
            "type" : "VEC3"
        },
        {
            "bufferView" : 1,
            "componentType" : 5126,
            "count" : 76,
            "type" : "VEC3"
        },
        {
            "bufferView" : 2,
            "componentType" : 5126,
            "count" : 76,
            "type" : "VEC2"
        },
        {
            "bufferView" : 3,
            "componentType" : 5123,
            "count" : 108,
            "type" : "SCALAR"
        },
        {
            "bufferView" : 5,
            "componentType" : 5126,
            "count" : 8,
            "max" : [
                0.8697469830513,
                15.927127838134766,
                0.6541680097579956
            ],
            "min" : [
                0.35583099722862244,
                0.4413450062274933,
                0.3623749911785126
            ],
            "type" : "VEC3"
        },
        {
            "bufferView" : 6,
            "componentType" : 5126,
            "count" : 8,
            "type" : "VEC3"
        },
        {
            "bufferView" : 7,
            "componentType" : 5126,
            "count" : 8,
            "type" : "VEC2"
        },
        {
            "bufferView" : 8,
            "componentType" : 5123,
            "count" : 12,
            "type" : "SCALAR"
        },
        {
            "bufferView" : 10,
            "componentType" : 5126,
            "count" : 12,
            "max" : [
                0.8697469830513,
                15.927127838134766,
                0.6541680097579956
            ],
            "min" : [
                0.35583099722862244,
                0.4413450062274933,
                0.3623749911785126
            ],
            "type" : "VEC3"
        },
        {
            "bufferView" : 11,
            "componentType" : 5126,
            "count" : 12,
            "type" : "VEC3"
        },
        {
            "bufferView" : 12,
            "componentType" : 5126,
            "count" : 12,
            "type" : "VEC2"
        },
        {
            "bufferView" : 13,
            "componentType" : 5123,
            "count" : 18,
            "type" : "SCALAR"
        },
        {
            "bufferView" : 15,
            "componentType" : 5126,
            "count" : 4,
            "max" : [
                -0.27608001232147217,
                28.483253479003906,
                -0.45527198910713196
            ],
            "min" : [
                -0.27608001232147217,
                0.3343859910964966,
                -0.8509960174560547
            ],
            "type" : "VEC3"
        },
        {
            "bufferView" : 16,
            "componentType" : 5126,
            "count" : 4,
            "type" : "VEC3"
        },
        {
            "bufferView" : 17,
            "componentType" : 5126,
            "count" : 4,
            "type" : "VEC2"
        },
        {
            "bufferView" : 18,
            "componentType" : 5123,
            "count" : 6,
            "type" : "SCALAR"
        }
    ],
    "bufferViews" : [
        {
            "buffer" : 0,
            "byteLength" : 912,
            "byteOffset" : 0
        },
        {
            "buffer" : 0,
            "byteLength" : 912,
            "byteOffset" : 912
        },
        {
            "buffer" : 0,
            "byteLength" : 608,
            "byteOffset" : 1824
        },
        {
            "buffer" : 0,
            "byteLength" : 216,
            "byteOffset" : 2432
        },
        {
            "buffer" : 0,
            "byteLength" : 27787,
            "byteOffset" : 2648
        },
        {
            "buffer" : 0,
            "byteLength" : 96,
            "byteOffset" : 30436
        },
        {
            "buffer" : 0,
            "byteLength" : 96,
            "byteOffset" : 30532
        },
        {
            "buffer" : 0,
            "byteLength" : 64,
            "byteOffset" : 30628
        },
        {
            "buffer" : 0,
            "byteLength" : 24,
            "byteOffset" : 30692
        },
        {
            "buffer" : 0,
            "byteLength" : 30702,
            "byteOffset" : 30716
        },
        {
            "buffer" : 0,
            "byteLength" : 144,
            "byteOffset" : 61420
        },
        {
            "buffer" : 0,
            "byteLength" : 144,
            "byteOffset" : 61564
        },
        {
            "buffer" : 0,
            "byteLength" : 96,
            "byteOffset" : 61708
        },
        {
            "buffer" : 0,
            "byteLength" : 36,
            "byteOffset" : 61804
        },
        {
            "buffer" : 0,
            "byteLength" : 44285,
            "byteOffset" : 61840
        },
        {
            "buffer" : 0,
            "byteLength" : 48,
            "byteOffset" : 106128
        },
        {
            "buffer" : 0,
            "byteLength" : 48,
            "byteOffset" : 106176
        },
        {
            "buffer" : 0,
            "byteLength" : 32,
            "byteOffset" : 106224
        },
        {
            "buffer" : 0,
            "byteLength" : 12,
            "byteOffset" : 106256
        },
        {
            "buffer" : 0,
            "byteLength" : 26616,
            "byteOffset" : 106268
        }
    ],
    "samplers" : [
        {
            "magFilter" : 9729,
            "minFilter" : 9987
        }
    ],
    "buffers" : [
        {
            "byteLength" : 132884,
            "uri" : "data:application/octet-stream;base64,"
        }
    ]
}
